{"glyphs":{":":{"x_min":0,"x_max":252,"ha":252,"o":"m 46 71 l 62 211 l 203 211 l 188 71 z m 83 412 l 97 552 l 239 552 l 224 412 z"},"$":{"x_min":0,"x_max":490,"ha":490,"o":"m 203 -98 l 212 -10 q 109 -6 64 57 q 26 109 26 205 q 26 222 28 241 l 170 267 q 168 245 168 226 q 168 113 236 113 q 266 113 281 132 q 297 151 300 181 q 301 192 301 202 q 302 236 288 261 q 271 293 229 333 l 147 412 q 117 440 100 466 q 83 491 73 529 q 66 554 66 582 q 66 598 68 615 q 78 707 136 760 q 194 813 286 819 l 295 902 l 341 902 l 333 819 q 373 816 403 802 q 432 787 448 766 q 465 746 474 716 q 483 686 485 658 q 486 643 486 625 q 486 611 486 596 l 344 573 q 346 598 346 619 q 346 629 345 639 q 344 667 331 685 q 318 700 294 700 q 292 700 290 700 q 261 699 243 679 q 226 660 223 630 q 222 621 222 612 q 222 601 224 591 q 227 573 236 558 q 246 542 255 532 q 264 522 280 506 l 360 429 q 385 404 403 381 q 420 358 436 329 q 450 300 456 265 q 459 244 459 222 q 459 207 458 190 q 449 109 395 55 q 340 0 258 -9 l 249 -98 z"},"?":{"x_min":0,"x_max":486,"ha":486,"o":"m 136 210 l 150 337 q 336 485 345 622 q 345 625 345 629 q 345 659 330 675 q 313 694 285 694 q 256 694 239 675 q 222 657 222 626 q 221 621 221 615 q 221 600 225 579 l 87 550 q 82 586 82 608 q 82 614 82 619 q 82 710 137 766 q 192 822 296 822 q 400 822 451 768 q 493 723 493 648 q 493 633 491 616 q 482 529 424 449 q 366 370 281 307 l 271 210 z m 109 0 l 125 143 l 271 143 l 255 0 z"},"<":{"x_min":0,"x_max":391,"ha":391,"o":"m 317 76 l 37 288 l 50 412 l 375 624 l 361 489 l 151 351 l 332 210 z"},"'":{"x_min":0,"x_max":281,"ha":281,"o":"m 87 525 l 117 810 l 241 810 l 162 525 z"},"=":{"x_min":0,"x_max":436,"ha":436,"o":"m 63 257 l 73 353 l 388 353 l 378 257 z m 83 444 l 92 540 l 408 540 l 398 444 z"},"a":{"x_min":0,"x_max":463,"ha":463,"o":"m 141 -10 q 103 -9 74 12 q 47 33 35 64 q 26 88 26 114 q 26 122 27 130 q 29 152 36 173 q 42 193 50 209 q 58 225 71 240 q 84 255 96 266 q 107 277 125 288 q 144 300 156 307 q 168 313 189 323 q 210 332 221 336 q 233 341 255 349 q 277 357 286 360 l 291 413 q 292 425 292 435 q 292 451 288 461 q 281 477 258 477 q 218 477 210 421 l 204 382 l 63 388 q 64 390 65 399 q 66 407 66 408 q 83 500 136 544 q 190 587 282 587 q 368 587 406 541 q 437 502 437 441 q 437 427 435 412 l 407 145 q 402 96 402 41 q 402 21 402 0 l 269 0 q 264 63 264 83 q 248 44 217 17 q 185 -10 141 -10 z m 208 99 q 222 99 237 109 q 251 119 262 131 l 278 290 q 235 268 204 234 q 173 201 169 164 q 168 158 168 152 q 169 131 177 117 q 188 99 208 99 z"},"L":{"x_min":0,"x_max":427,"ha":427,"o":"m 36 0 l 121 810 l 282 810 l 209 111 l 399 111 l 387 0 z"},"3":{"x_min":0,"x_max":526,"ha":526,"o":"m 240 -13 q 45 -13 45 179 q 45 202 48 228 l 51 256 l 203 256 q 202 255 201 244 q 200 233 200 231 q 198 209 198 192 q 198 160 205 142 q 216 114 254 114 q 293 114 309 143 q 325 171 331 233 q 333 253 333 271 q 333 289 331 302 q 326 329 308 345 q 289 361 254 363 q 252 363 230 363 l 242 480 l 264 480 q 317 481 340 508 q 363 535 369 597 q 371 613 371 626 q 370 656 362 674 q 351 699 313 699 q 294 699 280 691 q 266 683 258 667 q 250 652 245 634 q 241 616 237 590 q 237 577 234 557 l 82 557 l 87 599 q 98 705 160 763 q 223 821 326 821 q 430 820 480 765 q 522 719 522 639 q 522 622 520 604 q 513 535 479 488 q 445 441 397 428 q 484 396 484 277 q 484 258 481 236 q 476 180 459 135 q 442 90 414 57 q 385 23 341 5 q 297 -13 240 -13 z"},";":{"x_min":0,"x_max":263,"ha":263,"o":"m 51 -96 l 44 -44 q 113 -37 120 33 l 42 33 l 58 174 l 201 174 l 187 47 q 172 -96 51 -96 z m 84 430 l 99 573 l 240 573 l 226 430 z"},"J":{"x_min":0,"x_max":336,"ha":336,"o":"m -16 -19 l -4 95 q -1 95 2 95 q 58 95 80 112 q 103 131 109 188 l 174 810 l 336 810 l 271 183 q 264 130 251 94 q 239 58 215 32 q 191 6 154 -6 q 116 -19 62 -19 z"},"V":{"x_min":0,"x_max":519,"ha":519,"o":"m 153 0 l 82 810 l 223 810 l 262 254 l 412 810 l 559 810 l 316 0 z"},"\"":{"x_min":0,"x_max":366,"ha":366,"o":"m 77 525 l 107 810 l 235 810 l 148 525 z m 252 525 l 282 810 l 410 810 l 324 525 z"},"7":{"x_min":0,"x_max":526,"ha":526,"o":"m 115 0 l 353 694 l 123 694 l 134 810 l 514 810 l 503 706 l 262 0 z"},"S":{"x_min":0,"x_max":500,"ha":500,"o":"m 242 -11 q 130 -11 81 52 q 40 105 39 204 q 39 222 41 241 l 183 267 q 181 245 181 226 q 181 113 249 113 q 279 113 294 132 q 310 151 313 181 q 314 190 314 199 q 314 222 308 242 q 299 270 284 288 q 269 307 241 333 l 159 412 q 114 455 94 500 q 79 534 79 580 q 79 597 81 615 q 91 712 154 766 q 218 819 318 820 q 320 820 322 820 q 367 820 399 807 q 434 794 453 773 q 472 752 483 722 q 494 691 497 662 q 499 643 499 621 q 499 609 498 596 l 356 573 q 358 598 358 619 q 358 629 357 639 q 356 667 343 685 q 331 700 307 700 q 305 700 302 700 q 273 699 256 679 q 238 659 235 630 q 234 623 234 616 q 234 596 241 578 q 249 554 260 541 q 271 527 292 506 l 373 429 q 398 404 416 381 q 433 358 448 329 q 463 300 469 265 q 472 245 472 224 q 472 208 470 190 q 461 102 398 46 q 335 -11 242 -11 z"},"}":{"x_min":0,"x_max":367,"ha":367,"o":"m -5 -196 l 6 -94 q 22 -94 32 -93 q 43 -91 52 -89 q 61 -86 67 -80 q 72 -74 77 -67 q 82 -60 84 -46 q 87 -32 90 -18 q 92 -3 94 21 l 106 134 q 115 218 138 261 q 162 304 207 314 q 164 325 149 368 q 141 395 141 437 q 141 463 144 495 l 156 608 q 158 631 159 646 q 160 661 160 675 q 160 688 157 695 q 154 703 150 709 q 146 715 137 717 q 128 720 118 721 q 108 722 92 722 l 103 824 q 165 824 202 818 q 240 812 264 798 q 288 783 295 759 q 303 735 305 699 q 305 693 305 686 q 305 654 299 614 l 289 513 q 285 477 283 456 q 282 440 282 425 q 282 421 282 417 q 282 398 285 390 q 288 382 295 376 q 302 370 311 368 q 320 367 336 367 l 325 262 q 309 262 300 260 q 290 259 282 253 q 273 247 269 239 q 265 230 260 212 q 256 193 253 173 q 250 152 247 116 l 236 15 q 231 -31 226 -59 q 221 -86 210 -113 q 200 -139 185 -153 q 169 -167 143 -177 q 117 -188 82 -192 q 46 -196 -5 -196 z"},"Z":{"x_min":0,"x_max":429,"ha":429,"o":"m 10 0 l 21 102 l 290 699 l 93 699 l 104 810 l 464 810 l 456 725 l 176 111 l 392 111 l 380 0 z"},"x":{"x_min":0,"x_max":426,"ha":426,"o":"m -15 0 l 142 313 l 50 578 l 198 578 l 250 428 l 325 578 l 447 578 l 297 292 l 398 0 l 250 0 l 192 167 l 113 0 z"},")":{"x_min":0,"x_max":306,"ha":306,"o":"m -11 -187 l 0 -84 q 23 -84 42 -64 q 60 -45 73 -12 q 86 20 98 73 q 109 126 116 182 q 124 237 132 314 q 139 379 143 426 q 146 472 148 521 q 149 542 149 561 q 149 585 148 604 q 145 636 138 663 q 131 690 118 703 q 104 716 84 716 l 95 818 q 140 818 173 804 q 207 789 228 766 q 250 742 262 703 q 275 663 281 624 q 286 590 286 542 q 285 536 285 529 q 284 472 281 426 q 278 379 271 314 q 266 266 261 230 q 257 194 249 149 q 242 104 233 71 q 225 38 213 1 q 201 -36 186 -62 q 171 -88 151 -113 q 131 -138 108 -154 q 84 -169 54 -178 q 24 -187 -11 -187 z"},"&":{"x_min":0,"x_max":582,"ha":582,"o":"m 201 -11 q 120 -11 75 41 q 38 84 38 149 q 38 162 40 176 q 47 247 86 311 q 126 375 180 422 q 174 438 159 474 q 144 509 136 529 q 128 549 123 580 q 119 601 119 620 q 119 630 120 639 q 128 717 180 769 q 233 820 312 820 q 389 820 435 775 q 474 737 474 676 q 474 666 473 654 q 471 636 466 619 q 462 601 454 584 q 446 567 439 553 q 432 540 419 523 q 406 507 398 497 q 390 487 375 471 q 359 455 352 448 q 345 441 328 425 q 311 409 307 405 l 388 229 q 401 251 415 299 q 428 346 435 392 l 548 392 q 534 260 457 144 q 466 131 484 121 q 502 111 522 110 l 509 -10 q 494 -13 486 -13 q 475 -13 464 -11 q 454 -9 444 -3 q 433 2 426 6 q 419 10 409 20 q 398 29 395 32 q 391 36 380 48 q 368 60 367 61 q 337 27 294 8 q 250 -11 201 -11 z m 214 95 q 265 95 301 138 q 227 307 223 321 q 174 256 166 184 q 165 175 165 167 q 165 139 176 120 q 189 95 214 95 z m 271 483 q 295 519 320 570 q 345 621 349 660 q 350 664 350 667 q 350 686 339 697 q 326 711 305 711 q 282 711 266 692 q 251 673 249 645 q 248 624 248 611 q 248 598 252 575 q 255 553 258 541 q 261 528 265 509 q 269 490 271 483 z"},"_":{"x_min":0,"x_max":361,"ha":361,"o":"m -41 -159 l -31 -57 l 331 -57 l 320 -159 z"},"v":{"x_min":0,"x_max":412,"ha":412,"o":"m 101 0 l 48 578 l 192 578 l 203 181 l 295 578 l 438 578 l 263 0 z"},"O":{"x_min":0,"x_max":572,"ha":572,"o":"m 272 106 q 296 106 312 115 q 329 124 338 140 q 347 157 351 175 q 355 192 358 218 l 397 594 q 399 614 399 632 q 398 641 398 649 q 397 673 382 688 q 366 703 335 703 q 312 703 296 695 q 280 687 271 670 q 262 654 258 637 q 254 620 251 594 l 211 218 q 209 196 209 177 q 209 169 210 162 q 211 138 226 122 q 242 106 272 106 z m 260 -11 q 195 -11 150 7 q 106 25 82 60 q 58 96 51 144 q 47 168 47 198 q 47 225 50 256 l 82 556 q 96 687 158 753 q 220 820 348 820 q 413 820 458 802 q 502 785 526 750 q 550 715 558 667 q 562 642 562 613 q 562 586 559 556 l 527 256 q 513 125 450 57 q 388 -11 260 -11 z"},"(":{"x_min":0,"x_max":327,"ha":327,"o":"m 250 -187 q 215 -187 187 -178 q 159 -169 138 -154 q 118 -138 103 -113 q 88 -88 79 -62 q 70 -36 65 1 q 61 38 60 71 q 59 84 60 98 q 60 121 61 148 q 62 193 66 229 q 69 265 74 313 q 79 363 84 400 q 88 438 96 483 q 104 529 112 562 q 120 595 132 632 q 145 669 159 695 q 174 721 194 746 q 213 771 237 786 q 260 801 290 810 q 320 818 355 818 l 345 716 q 328 716 313 705 q 299 695 287 677 q 276 659 266 630 q 256 601 249 570 q 242 539 235 494 q 228 450 223 409 q 218 368 212 313 q 206 249 202 201 q 198 153 196 105 q 196 88 196 72 q 196 46 198 25 q 201 -7 208 -33 q 215 -60 228 -72 q 242 -84 261 -84 z"},"C":{"x_min":0,"x_max":549,"ha":549,"o":"m 258 -11 q 205 -11 166 2 q 126 15 102 38 q 78 62 64 96 q 51 129 49 171 q 48 184 48 197 q 48 228 51 261 l 81 546 q 88 612 104 661 q 121 709 152 746 q 182 783 231 801 q 279 820 346 820 q 409 820 451 803 q 494 787 517 755 q 539 724 546 683 q 550 660 549 633 q 549 611 547 586 l 539 516 l 382 516 l 390 590 q 392 605 392 610 q 393 615 393 628 q 394 641 394 646 q 393 651 392 661 q 391 672 388 676 q 385 680 380 687 q 376 693 370 696 q 363 699 354 701 q 345 703 334 703 q 317 703 305 699 q 292 695 283 686 q 274 677 269 668 q 263 658 259 643 q 255 627 253 614 q 250 602 249 583 l 211 225 q 209 203 209 186 q 209 153 217 135 q 230 106 271 106 q 288 106 300 110 q 312 114 320 124 q 329 133 334 142 q 339 150 343 167 q 346 183 348 194 q 350 205 352 225 l 360 302 l 517 302 l 510 234 q 504 178 489 136 q 473 93 445 59 q 416 25 369 7 q 322 -11 258 -11 z"},"W":{"x_min":0,"x_max":709,"ha":709,"o":"m 114 0 l 91 810 l 228 810 l 233 311 l 361 810 l 469 810 l 494 312 l 605 810 l 739 810 l 547 0 l 412 0 l 385 517 l 251 0 z"},"A":{"x_min":0,"x_max":534,"ha":534,"o":"m -5 0 l 240 810 l 416 810 l 489 0 l 339 0 l 328 181 l 197 181 l 148 0 z m 224 282 l 322 282 l 307 606 z"},"f":{"x_min":0,"x_max":312,"ha":312,"o":"m 53 0 l 103 475 l 43 475 l 54 578 l 113 578 l 117 613 q 121 648 126 673 q 131 697 143 720 q 154 743 172 757 q 190 771 218 779 q 247 787 285 787 q 314 787 361 782 l 349 671 q 315 676 313 676 q 272 676 266 623 l 261 578 l 339 578 l 329 475 l 251 475 l 201 0 z"},"Q":{"x_min":0,"x_max":572,"ha":572,"o":"m 419 -167 q 387 -149 344 -102 q 302 -55 277 -10 q 271 -11 260 -11 q 195 -11 150 7 q 106 25 82 60 q 58 96 51 144 q 47 168 47 198 q 47 225 50 256 l 82 556 q 96 687 158 753 q 220 820 348 820 q 413 820 458 802 q 502 785 526 750 q 550 715 558 667 q 562 642 562 613 q 562 586 559 556 l 527 256 q 507 71 392 16 q 409 -12 439 -45 q 470 -78 490 -93 z m 272 106 q 296 106 312 115 q 329 124 338 140 q 347 157 351 175 q 355 192 358 218 l 397 594 q 399 614 399 632 q 398 641 398 649 q 397 673 382 688 q 366 703 335 703 q 312 703 296 695 q 280 687 271 670 q 262 654 258 637 q 254 620 251 594 l 211 218 q 209 196 209 177 q 209 169 210 162 q 211 138 226 122 q 242 106 272 106 z"},"w":{"x_min":0,"x_max":596,"ha":596,"o":"m 86 0 l 60 578 l 183 578 l 192 225 l 283 578 l 392 578 l 404 220 l 492 578 l 609 578 l 458 0 l 333 0 l 311 345 l 213 0 z"},"-":{"x_min":0,"x_max":368,"ha":368,"o":"m 64 282 l 75 382 l 324 382 l 314 282 z"},"E":{"x_min":0,"x_max":436,"ha":436,"o":"m 36 0 l 121 810 l 471 810 l 459 697 l 271 697 l 248 479 l 395 479 l 383 366 l 236 366 l 209 111 l 400 111 l 388 0 z"},"s":{"x_min":0,"x_max":408,"ha":408,"o":"m 185 -10 q 41 -10 11 141 l 123 184 q 132 140 150 116 q 167 93 193 93 q 194 93 196 93 q 215 94 229 107 q 243 122 243 141 q 243 168 186 222 l 128 275 q 55 344 55 415 q 55 423 56 432 q 64 501 117 544 q 170 587 242 587 q 311 587 352 548 q 392 508 400 438 l 299 395 q 294 432 279 457 q 264 481 239 482 q 238 482 237 482 q 218 482 205 471 q 191 459 190 442 q 188 431 197 417 q 205 402 215 391 q 226 380 244 363 l 301 306 q 317 291 326 281 q 336 271 349 254 q 361 237 368 222 q 374 207 378 187 q 380 175 380 162 q 380 154 379 146 q 372 73 316 31 q 261 -10 185 -10 z"},">":{"x_min":0,"x_max":391,"ha":391,"o":"m 39 76 l 53 210 l 263 351 l 83 489 l 97 624 l 378 412 l 365 288 z"},"l":{"x_min":0,"x_max":263,"ha":263,"o":"m 35 0 l 120 810 l 269 810 l 184 0 z"},"8":{"x_min":0,"x_max":526,"ha":526,"o":"m 240 -12 q 47 -12 47 184 q 47 209 51 238 q 58 304 87 353 q 115 401 164 427 q 100 479 100 575 q 100 589 102 604 q 111 706 169 763 q 227 820 328 820 q 428 819 473 763 q 509 718 509 645 q 509 625 506 604 q 493 484 407 427 q 451 401 469 353 q 483 315 483 269 q 483 254 482 238 q 459 -12 240 -12 z m 333 229 q 336 249 336 269 q 336 272 336 276 q 335 300 331 318 q 327 336 313 347 q 300 358 279 358 q 258 358 243 348 q 228 337 219 317 q 209 297 205 277 q 200 256 197 229 q 194 212 194 193 q 194 189 194 186 q 195 163 199 145 q 203 126 217 114 q 230 102 252 102 q 274 102 290 114 q 305 125 314 146 q 322 167 326 185 q 330 204 333 229 z m 292 485 q 350 485 363 609 q 365 622 365 633 q 365 661 356 679 q 345 706 315 706 q 285 706 268 680 q 251 654 246 610 q 244 587 244 568 q 244 485 292 485 z"},"\\":{"x_min":0,"x_max":408,"ha":408,"o":"m 252 0 l 100 810 l 192 810 l 344 0 z"},"e":{"x_min":0,"x_max":457,"ha":457,"o":"m 208 -10 q 110 -10 68 43 q 35 86 35 160 q 35 178 37 197 l 56 380 q 67 481 120 534 q 174 587 270 587 q 369 587 406 534 q 435 492 435 420 q 435 398 433 374 l 423 281 l 193 281 l 183 188 q 181 164 181 146 q 182 143 182 141 q 182 121 191 109 q 200 98 219 98 q 243 98 255 114 q 268 131 271 165 l 277 217 l 416 217 l 411 172 q 402 84 350 37 q 297 -10 208 -10 z m 201 353 l 291 353 l 297 409 q 298 421 298 430 q 298 452 292 464 q 283 480 259 481 q 234 481 222 462 q 210 443 205 395 z"},"b":{"x_min":0,"x_max":491,"ha":491,"o":"m 291 -10 q 234 -10 181 43 l 177 0 l 28 0 l 113 810 l 262 810 l 233 535 q 295 587 356 587 l 359 587 q 383 587 402 579 q 421 571 433 557 q 444 543 453 525 q 461 507 464 486 q 467 466 468 444 q 468 438 468 432 q 468 417 466 403 l 443 188 q 438 131 420 88 q 402 44 369 17 q 335 -10 291 -10 z m 240 92 q 241 92 241 92 q 266 93 277 116 q 289 141 294 182 l 318 412 q 320 424 320 435 q 320 491 283 491 q 281 491 280 491 q 256 490 226 470 l 188 109 q 213 92 240 92 z"},"%":{"x_min":0,"x_max":987,"ha":987,"o":"m 248 457 q 263 457 274 462 q 286 468 293 477 q 300 485 305 501 q 310 517 312 532 q 314 547 317 570 l 321 605 q 324 637 324 660 q 324 662 324 664 q 324 688 312 700 q 301 712 275 712 q 238 712 225 688 q 213 664 207 605 l 203 569 q 200 538 200 513 q 200 511 200 510 q 200 484 212 470 q 223 457 248 457 z m 238 357 q 141 357 104 409 q 75 449 75 521 q 75 542 77 567 l 81 606 q 92 713 139 763 q 186 812 285 812 q 385 812 422 764 q 451 727 450 655 q 450 634 448 609 l 443 565 q 432 459 384 408 q 335 357 238 357 z m 748 97 q 763 97 774 103 q 786 108 793 117 q 800 126 805 142 q 810 157 812 172 q 814 187 817 210 l 821 246 q 824 278 824 301 q 824 302 824 304 q 824 328 812 340 q 801 353 775 353 q 759 353 748 348 q 737 343 730 335 q 723 328 718 312 q 713 297 711 283 q 709 270 707 246 l 703 210 q 700 178 700 155 q 700 152 700 150 q 700 125 712 111 q 723 97 748 97 z m 737 -2 q 641 -2 604 50 q 575 90 574 163 q 574 184 577 208 l 581 247 q 592 354 639 403 q 686 453 785 453 q 885 453 922 404 q 950 368 950 297 q 950 275 947 250 l 943 206 q 932 100 883 49 q 834 -2 737 -2 z m 304 0 l 625 810 l 719 810 l 398 0 z"},"m":{"x_min":0,"x_max":726,"ha":726,"o":"m 27 0 l 88 578 l 236 578 l 231 529 q 301 587 376 587 q 444 587 460 520 q 534 587 615 587 q 666 587 687 551 q 703 522 703 482 q 703 471 702 458 l 653 0 l 505 0 l 551 431 q 551 438 551 443 q 551 459 547 468 q 541 479 520 479 q 496 479 462 458 q 462 457 462 455 l 462 452 l 414 0 l 267 0 l 312 431 q 313 438 313 444 q 313 458 309 467 q 302 479 282 479 q 281 479 281 479 q 258 479 224 457 l 175 0 z"},"#":{"x_min":0,"x_max":521,"ha":521,"o":"m 32 0 l 95 276 l 45 276 l 58 373 l 120 373 l 143 478 l 69 478 l 81 577 l 170 577 l 223 810 l 333 810 l 280 577 l 360 577 l 414 810 l 523 810 l 469 577 l 517 577 l 504 478 l 443 478 l 419 373 l 493 373 l 480 276 l 395 276 l 331 0 l 222 0 l 285 276 l 205 276 l 141 0 z m 229 373 l 310 373 l 334 478 l 253 478 z"},",":{"x_min":0,"x_max":222,"ha":222,"o":"m 24 -139 l 17 -86 q 48 -79 69 -58 q 90 -37 94 0 l 17 0 l 32 142 l 175 142 l 161 14 q 147 -122 24 -139 z"},"n":{"x_min":0,"x_max":489,"ha":489,"o":"m 27 0 l 88 578 l 236 578 l 230 521 q 308 587 378 587 q 428 587 449 551 q 466 522 466 482 q 466 471 464 458 l 417 0 l 268 0 l 313 431 q 314 438 314 445 q 314 460 310 468 q 303 479 283 479 q 259 479 224 456 l 176 0 z"},"h":{"x_min":0,"x_max":492,"ha":492,"o":"m 29 0 l 114 810 l 262 810 l 232 524 q 305 587 382 587 q 432 587 453 551 q 469 522 469 482 q 469 471 468 458 l 420 0 l 271 0 l 316 431 q 317 438 317 445 q 317 460 313 468 q 307 479 286 479 q 263 479 225 454 l 177 0 z"},"z":{"x_min":0,"x_max":379,"ha":379,"o":"m 9 0 l 20 97 l 222 469 l 73 469 l 84 578 l 389 578 l 379 491 l 177 110 l 340 110 l 329 0 z"},"B":{"x_min":0,"x_max":570,"ha":570,"o":"m 36 0 l 121 810 l 325 810 q 370 810 405 804 q 439 799 470 785 q 501 771 520 747 q 539 724 547 687 q 552 665 552 639 q 552 621 549 601 q 532 454 413 436 q 538 415 538 273 q 538 256 536 237 q 524 119 457 59 q 391 0 276 0 z m 209 114 l 256 114 q 319 114 346 143 q 374 173 380 239 q 382 256 382 271 q 382 318 365 341 q 342 372 278 372 l 236 372 z m 248 482 l 289 482 q 351 482 376 510 q 402 537 408 598 q 409 608 409 618 q 409 660 387 677 q 359 699 295 699 l 271 699 z"},"K":{"x_min":0,"x_max":545,"ha":545,"o":"m 36 0 l 121 810 l 282 810 l 247 468 l 432 810 l 587 810 l 396 446 l 515 0 l 352 0 l 260 373 l 232 331 l 197 0 z"},"R":{"x_min":0,"x_max":569,"ha":569,"o":"m 36 0 l 121 810 l 322 810 q 374 810 412 803 q 451 797 482 782 q 514 767 533 743 q 553 719 561 682 q 565 659 565 632 q 565 614 563 595 q 555 519 525 469 q 496 420 438 396 l 517 0 l 356 0 l 294 366 l 236 366 l 197 0 z m 246 465 l 286 465 q 347 465 375 493 q 403 521 410 583 q 412 599 412 612 q 412 651 397 672 q 378 699 320 700 l 271 700 z"},"T":{"x_min":0,"x_max":433,"ha":433,"o":"m 113 0 l 186 690 l 55 690 l 67 810 l 487 810 l 475 690 l 347 690 l 274 0 z"},"P":{"x_min":0,"x_max":539,"ha":539,"o":"m 36 0 l 121 810 l 370 810 q 559 810 559 624 q 559 602 556 578 q 549 516 529 471 q 508 427 474 402 q 441 377 400 366 q 359 354 308 354 l 235 354 l 197 0 z m 247 467 l 298 467 q 354 467 376 492 q 398 517 404 580 q 407 604 407 622 q 407 634 406 644 q 403 670 384 683 q 364 696 322 696 l 271 696 z"},"|":{"x_min":0,"x_max":257,"ha":257,"o":"m 23 -170 l 126 810 l 252 810 l 149 -170 z"},"t":{"x_min":0,"x_max":342,"ha":342,"o":"m 189 -7 q 155 -6 130 3 q 105 13 92 30 q 79 47 71 71 q 64 94 64 122 q 64 149 66 181 l 98 480 l 42 480 l 52 578 l 108 578 l 126 750 l 276 750 l 258 578 l 344 578 l 333 480 l 248 480 l 214 163 q 214 159 214 155 q 214 113 261 112 q 263 112 264 112 q 277 112 304 116 l 292 0 q 240 -7 202 -7 q 195 -7 189 -7 z"},"M":{"x_min":0,"x_max":690,"ha":690,"o":"m 33 0 l 131 810 l 301 810 l 351 284 l 515 810 l 680 810 l 608 0 l 490 0 l 536 549 l 372 0 l 273 0 l 222 551 l 153 0 z"},"g":{"x_min":0,"x_max":480,"ha":480,"o":"m 217 -174 q 192 -174 173 -174 q 154 -173 128 -171 q 103 -168 84 -164 q 65 -160 46 -152 q 26 -145 15 -134 q 3 -124 -4 -107 q -9 -95 -9 -80 q -9 -76 -9 -71 q -1 -5 86 48 q 26 70 26 113 q 26 146 45 169 q 64 193 106 224 q 77 248 64 283 q 56 307 57 340 q 57 357 59 376 q 70 483 124 535 q 179 587 270 587 q 361 587 392 534 q 430 575 477 596 l 498 606 l 524 528 q 507 524 473 510 q 438 497 422 487 q 438 456 438 409 q 438 394 436 376 q 426 282 377 230 q 328 178 235 178 q 216 178 191 182 q 166 187 155 192 q 135 167 135 153 q 135 136 185 129 q 193 128 238 123 q 283 118 297 116 q 374 107 404 73 q 429 45 429 -3 q 429 -14 428 -24 q 420 -99 371 -137 q 322 -174 217 -174 z m 227 -76 q 268 -76 288 -66 q 308 -57 311 -35 q 312 -27 312 -21 q 312 -5 303 3 q 290 15 253 19 l 164 28 q 133 -8 131 -33 q 130 -35 130 -38 q 131 -57 148 -65 q 168 -75 227 -76 z m 239 271 q 270 271 282 295 q 294 319 301 382 q 305 414 305 437 q 305 455 302 468 q 295 495 263 495 q 249 495 239 490 q 229 485 223 477 q 217 469 213 454 q 208 438 206 423 q 204 408 201 382 q 197 355 197 334 q 197 314 201 300 q 209 271 239 271 z"},"j":{"x_min":0,"x_max":263,"ha":263,"o":"m -53 -157 l -42 -51 q -22 -54 -14 -54 q 35 -54 41 0 l 101 578 l 250 578 l 187 -18 q 180 -87 137 -128 q 94 -168 24 -168 q -17 -168 -53 -157 z m 111 672 l 123 787 l 272 787 l 260 672 z"},"i":{"x_min":0,"x_max":256,"ha":256,"o":"m 30 0 l 91 578 l 239 578 l 179 0 z m 101 672 l 113 787 l 262 787 l 250 672 z"},"y":{"x_min":0,"x_max":431,"ha":431,"o":"m 19 -161 l 30 -56 q 88 -56 110 -44 q 130 -33 130 0 q 130 2 130 4 q 129 24 119 92 l 41 578 l 184 578 l 218 219 l 314 578 l 458 578 l 257 -31 q 245 -68 223 -94 q 202 -120 173 -134 q 144 -148 111 -155 q 79 -161 39 -161 z"},"@":{"x_min":0,"x_max":943,"ha":943,"o":"m 435 -131 q 224 -131 126 -11 q 57 75 57 208 q 57 262 68 324 q 105 553 246 681 q 388 810 599 810 q 665 810 719 795 q 773 780 812 753 q 850 726 877 688 q 905 650 917 604 q 929 558 932 506 q 933 495 933 484 q 933 442 924 397 q 917 355 902 313 q 887 271 862 232 q 837 193 806 163 q 774 133 731 115 q 688 97 639 97 q 595 97 563 118 q 531 139 526 177 q 513 147 486 127 q 460 106 425 104 q 417 103 409 103 q 341 103 307 155 q 277 199 277 262 q 277 281 280 301 q 285 340 298 381 q 312 422 335 464 q 358 505 388 537 q 418 570 458 590 q 499 610 543 610 q 557 610 568 605 q 579 600 586 591 q 593 583 598 574 q 603 566 606 559 q 607 558 607 557 q 607 556 608 555 l 623 603 l 739 603 l 654 261 q 646 223 646 204 q 646 197 646 193 q 649 182 659 180 q 664 179 669 179 q 696 180 726 203 q 760 231 785 282 q 811 333 820 393 q 828 441 828 485 q 828 490 828 495 q 827 543 810 583 q 793 624 765 653 q 736 682 688 698 q 641 714 578 714 q 496 714 427 685 q 358 656 310 603 q 261 550 229 480 q 197 411 183 327 q 172 271 172 223 q 172 124 218 60 q 286 -35 459 -35 q 500 -35 554 -26 q 609 -18 655 -3 l 664 -99 q 535 -131 435 -131 z m 468 206 q 478 208 488 212 q 498 217 511 229 q 524 242 531 259 l 587 491 q 585 497 577 499 q 569 501 562 501 q 524 501 490 471 q 457 441 436 396 q 416 350 410 300 q 409 289 409 278 q 409 264 411 252 q 415 230 430 217 q 442 206 460 206 q 464 206 468 206 z"},".":{"x_min":0,"x_max":227,"ha":227,"o":"m 21 0 l 37 144 l 179 144 l 164 0 z"},"p":{"x_min":0,"x_max":489,"ha":489,"o":"m 7 -190 l 88 578 l 236 578 l 232 535 q 294 587 355 587 l 358 587 q 382 587 401 579 q 420 571 432 557 q 443 543 452 525 q 460 507 463 486 q 466 466 467 444 q 467 439 467 434 q 467 418 465 403 l 442 188 q 433 100 394 45 q 355 -10 289 -10 q 232 -10 180 43 l 156 -190 z m 238 92 q 256 92 268 105 q 280 118 285 137 q 290 155 293 182 l 317 412 q 318 424 318 435 q 318 491 281 491 q 279 491 278 491 q 255 490 225 470 l 187 109 q 212 92 238 92 z"},"X":{"x_min":0,"x_max":505,"ha":505,"o":"m -16 0 l 190 433 l 75 810 l 227 810 l 300 573 l 406 810 l 545 810 l 352 398 l 474 0 l 322 0 l 243 258 l 122 0 z"},"*":{"x_min":0,"x_max":417,"ha":417,"o":"m 190 455 l 108 506 l 192 610 l 87 653 l 130 743 l 226 687 l 226 809 l 336 809 l 311 687 l 418 743 l 443 652 l 328 610 l 392 507 l 297 455 l 255 567 z"},"Y":{"x_min":0,"x_max":490,"ha":490,"o":"m 145 0 l 178 318 l 69 810 l 221 810 l 280 517 l 395 810 l 543 810 l 333 318 l 299 0 z"},"c":{"x_min":0,"x_max":452,"ha":452,"o":"m 207 -10 q 109 -10 68 44 q 35 86 35 158 q 35 176 37 196 l 57 382 q 67 481 120 534 q 172 587 269 587 q 362 588 403 544 q 437 508 437 442 q 437 428 435 411 l 429 358 l 289 358 l 294 415 q 296 427 296 437 q 296 458 290 469 q 282 484 259 484 q 235 484 223 466 q 212 447 207 400 l 184 176 q 182 159 182 146 q 182 123 187 112 q 195 96 219 95 q 242 95 253 111 q 264 127 268 162 l 275 230 l 416 230 l 410 169 q 400 81 349 35 q 298 -10 207 -10 z"},"!":{"x_min":0,"x_max":242,"ha":242,"o":"m 21 0 l 37 141 l 179 141 l 164 0 z m 88 196 l 108 808 l 256 808 l 140 196 z"},"/":{"x_min":0,"x_max":408,"ha":408,"o":"m 15 0 l 336 810 l 429 810 l 107 0 z"},"[":{"x_min":0,"x_max":339,"ha":339,"o":"m 11 -188 l 116 810 l 362 810 l 355 748 l 234 748 l 142 -125 l 263 -125 l 256 -188 z"},"6":{"x_min":0,"x_max":526,"ha":526,"o":"m 244 -11 q 188 -11 148 10 q 107 30 86 66 q 64 103 57 151 q 52 178 53 208 q 53 231 55 257 l 84 537 q 90 587 100 628 q 110 668 129 705 q 147 742 174 766 q 201 791 241 805 q 280 820 331 820 q 438 820 481 768 q 517 726 517 648 q 517 632 515 614 q 515 613 515 608 q 514 602 514 602 l 369 602 q 372 625 372 643 q 372 650 371 657 q 370 680 357 691 q 345 703 319 703 q 283 703 265 667 q 248 630 238 538 l 229 453 q 244 476 273 489 q 302 501 338 502 q 340 502 342 502 q 378 502 406 492 q 435 480 452 459 q 469 438 480 409 q 490 380 491 345 q 491 337 491 329 q 491 301 489 270 q 459 -11 244 -11 z m 258 104 q 277 104 291 114 q 304 124 313 143 q 321 163 326 186 q 331 209 334 243 q 338 283 340 315 q 340 319 340 323 q 340 350 329 367 q 316 387 287 387 q 265 387 246 375 q 228 363 218 346 l 205 220 q 203 202 203 186 q 203 104 258 104 z"},"r":{"x_min":0,"x_max":358,"ha":358,"o":"m 29 0 l 90 578 l 238 578 l 229 486 q 293 585 358 585 q 367 585 380 583 l 365 443 q 348 449 330 449 l 328 449 q 296 448 270 433 q 244 418 218 385 l 178 0 z"},"2":{"x_min":0,"x_max":526,"ha":526,"o":"m 28 0 l 39 107 l 266 412 q 272 420 289 442 q 305 463 313 474 q 321 484 334 504 q 347 523 353 538 q 360 552 366 571 q 372 590 374 609 q 375 620 375 629 q 375 657 364 674 q 352 693 325 693 q 321 693 317 693 q 251 688 238 571 l 234 535 l 86 535 l 90 573 q 96 629 113 673 q 130 717 159 750 q 188 784 232 802 q 276 821 334 821 q 439 820 487 765 q 527 719 526 643 q 526 626 524 607 q 523 592 520 577 q 516 562 513 549 q 510 537 503 522 q 496 507 492 498 q 488 488 478 473 q 468 458 464 450 q 459 443 447 427 q 435 411 431 405 q 427 400 413 382 q 399 364 396 360 l 212 121 l 452 121 l 439 0 z"},"{":{"x_min":0,"x_max":355,"ha":355,"o":"m 281 -196 q 250 -196 226 -195 q 202 -193 182 -190 q 162 -186 147 -182 q 132 -177 120 -169 q 109 -161 101 -153 q 94 -144 89 -131 q 84 -117 82 -104 q 80 -90 80 -70 q 80 -50 81 -31 q 82 -12 85 15 l 96 116 q 100 152 101 173 q 102 188 102 203 q 102 208 102 212 q 102 230 99 239 q 96 247 89 253 q 82 259 73 260 q 64 262 48 262 l 60 367 q 75 367 84 368 q 94 370 102 376 q 111 382 115 390 q 120 398 124 417 q 128 436 131 456 q 134 477 138 513 l 148 614 q 152 648 155 671 q 159 693 165 716 q 171 739 179 753 q 187 767 199 781 q 212 794 229 802 q 245 809 269 814 q 292 820 321 822 q 350 824 389 824 l 378 722 q 362 722 352 721 q 341 720 332 717 q 323 715 318 709 q 312 703 307 696 q 303 688 300 675 q 297 661 295 646 q 292 632 290 608 l 278 495 q 270 411 246 368 q 223 325 178 314 q 222 304 235 261 q 244 234 244 192 q 244 166 240 134 l 229 21 q 226 -3 225 -18 q 224 -33 224 -46 q 225 -60 228 -67 q 230 -74 235 -80 q 239 -86 247 -89 q 256 -91 266 -93 q 276 -94 292 -94 z"},"9":{"x_min":0,"x_max":526,"ha":526,"o":"m 234 -11 q 127 -11 84 42 q 49 84 49 160 q 49 178 51 197 q 51 197 52 202 q 52 207 52 208 l 197 208 q 195 188 195 172 q 195 145 201 130 q 211 106 248 106 q 284 106 301 142 q 317 178 328 271 l 336 356 q 304 309 228 307 q 226 307 225 307 q 188 307 160 318 q 131 330 114 352 q 97 374 87 404 q 77 435 76 470 q 76 478 76 486 q 76 515 78 545 q 85 608 102 657 q 119 706 147 743 q 176 780 220 800 q 265 820 322 820 q 378 820 419 801 q 459 781 481 746 q 503 711 511 664 q 515 639 515 610 q 515 586 512 559 l 482 272 q 477 222 467 182 q 457 141 438 104 q 418 68 392 43 q 365 18 325 4 q 285 -11 234 -11 z m 282 422 q 321 422 348 463 l 361 589 q 363 611 363 630 q 363 639 362 646 q 361 671 348 688 q 335 705 311 705 q 274 705 258 671 q 242 636 234 566 q 229 520 229 492 q 229 476 231 466 q 241 424 282 422 z"}," ":{"x_min":0,"x_max":233,"ha":233,"o":""},"I":{"x_min":0,"x_max":286,"ha":286,"o":"m 39 0 l 124 810 l 284 810 l 199 0 z"},"H":{"x_min":0,"x_max":591,"ha":591,"o":"m 36 0 l 121 810 l 282 810 l 248 477 l 395 477 l 430 810 l 591 810 l 506 0 l 345 0 l 383 361 l 235 361 l 197 0 z"},"4":{"x_min":0,"x_max":526,"ha":526,"o":"m 252 0 l 272 193 l 30 193 l 44 319 l 303 810 l 476 810 l 424 311 l 505 311 l 493 193 l 412 193 l 391 0 z m 166 311 l 284 311 l 320 652 z"},"~":{"x_min":0,"x_max":475,"ha":475,"o":"m 332 341 q 308 341 277 356 q 247 371 219 385 q 191 400 174 400 q 162 400 140 387 q 118 375 100 355 l 58 419 q 83 452 121 480 q 159 507 187 507 q 210 507 241 493 q 271 479 299 464 q 327 450 343 450 q 367 450 417 495 l 463 438 q 439 402 401 372 q 362 341 332 341 z"},"D":{"x_min":0,"x_max":567,"ha":567,"o":"m 209 113 l 245 113 q 265 113 280 116 q 295 119 306 124 q 317 128 325 139 q 333 149 338 158 q 343 167 346 184 q 350 202 352 215 q 354 228 356 252 l 390 572 q 393 599 393 619 q 393 633 392 644 q 389 671 369 683 q 349 695 305 695 l 271 695 z m 36 0 l 121 810 l 316 810 q 392 810 441 795 q 491 781 518 749 q 545 717 553 671 q 557 647 557 617 q 557 589 553 556 l 522 264 q 513 170 483 114 q 454 58 394 29 q 333 0 235 0 z"},"^":{"x_min":0,"x_max":471,"ha":471,"o":"m 58 477 l 233 810 l 359 810 l 465 477 l 335 477 l 283 687 l 187 477 z"},"0":{"x_min":0,"x_max":526,"ha":526,"o":"m 251 120 q 312 120 323 225 l 360 579 q 362 593 362 604 q 363 614 363 627 q 362 641 359 651 q 356 661 351 670 q 345 679 335 683 q 325 688 311 688 q 294 688 282 681 q 269 673 262 663 q 255 653 250 637 q 245 621 243 608 q 241 596 239 579 l 202 225 q 200 209 200 195 q 200 120 251 120 z m 237 -13 q 133 -13 84 51 q 45 103 45 183 q 45 202 47 222 l 84 583 q 96 693 157 757 q 217 820 325 820 q 432 820 479 757 q 517 706 517 625 q 517 604 515 583 l 477 222 q 466 115 403 51 q 340 -13 237 -13 z"},"F":{"x_min":0,"x_max":420,"ha":420,"o":"m 36 0 l 121 810 l 461 810 l 450 699 l 271 699 l 248 478 l 396 478 l 384 364 l 236 364 l 197 0 z"},"`":{"x_min":0,"x_max":303,"ha":303,"o":"m 209 609 l 107 810 l 258 810 l 297 609 z"},"k":{"x_min":0,"x_max":508,"ha":508,"o":"m 28 1 l 114 811 l 261 811 l 213 354 l 379 578 l 542 578 l 372 344 l 480 0 l 321 0 l 249 280 l 199 221 l 176 1 z"},"u":{"x_min":0,"x_max":486,"ha":486,"o":"m 122 -9 q 72 -10 51 27 q 34 56 34 97 q 34 108 36 120 l 83 578 l 232 578 l 187 144 q 186 137 186 130 q 186 116 190 107 q 197 96 216 96 q 217 96 218 96 q 240 96 273 117 l 321 578 l 470 578 l 409 0 l 261 0 l 267 54 q 191 -9 122 -9 z"},"]":{"x_min":0,"x_max":322,"ha":322,"o":"m -22 -188 l -16 -126 l 106 -126 l 197 748 l 76 748 l 82 810 l 328 810 l 224 -188 z"},"U":{"x_min":0,"x_max":574,"ha":574,"o":"m 262 -11 q 194 -11 149 8 q 105 26 84 62 q 62 97 56 148 q 53 171 53 197 q 53 229 58 264 l 115 810 l 273 810 l 214 244 q 212 225 211 210 q 210 203 211 195 q 211 188 211 179 q 212 162 216 150 q 220 139 227 129 q 233 119 246 114 q 258 109 274 109 q 294 109 309 117 q 324 125 333 136 q 342 148 348 167 q 354 186 357 203 q 360 220 363 244 l 422 810 l 581 810 l 523 264 q 517 210 506 169 q 496 127 476 93 q 457 58 428 36 q 399 14 358 1 q 316 -11 262 -11 z"},"o":{"x_min":0,"x_max":467,"ha":467,"o":"m 218 93 q 246 93 258 114 q 269 136 273 177 l 297 401 q 298 417 298 430 q 298 450 294 464 q 287 485 260 486 q 232 486 221 464 q 209 442 205 401 l 182 177 q 180 158 180 142 q 180 139 180 135 q 181 116 190 104 q 200 93 218 93 z m 70 41 q 34 83 34 153 q 34 169 36 188 l 57 391 q 67 485 122 536 q 176 587 270 587 q 364 587 409 537 q 445 496 445 425 q 445 409 443 391 l 422 188 q 412 92 356 41 q 301 -10 208 -10 q 114 -10 70 41 z"},"N":{"x_min":0,"x_max":551,"ha":551,"o":"m 36 0 l 121 810 l 233 810 l 372 382 l 417 810 l 551 810 l 466 0 l 359 0 l 221 454 l 173 0 z"},"+":{"x_min":0,"x_max":441,"ha":441,"o":"m 166 207 l 183 369 l 41 369 l 50 462 l 193 462 l 209 621 l 311 621 l 294 462 l 440 462 l 430 369 l 285 369 l 268 207 z"},"G":{"x_min":0,"x_max":567,"ha":567,"o":"m 240 -11 q 181 -11 140 9 q 99 28 78 64 q 57 102 50 153 q 47 178 47 204 q 47 235 51 270 l 79 536 q 85 590 96 633 q 108 676 128 712 q 149 748 178 771 q 208 794 250 807 q 292 820 345 820 q 409 820 452 804 q 495 788 518 757 q 542 725 549 683 q 553 659 553 631 q 553 608 550 583 l 545 538 l 389 538 l 395 590 q 397 619 397 642 q 397 646 397 649 q 396 675 382 689 q 367 703 335 703 q 314 703 300 696 q 285 688 276 678 q 267 668 261 650 q 255 631 253 616 q 250 602 248 578 l 211 231 q 209 210 209 192 q 210 178 211 166 q 214 138 230 123 q 246 107 276 107 q 322 107 344 140 q 365 174 372 238 l 379 315 l 298 315 l 309 416 l 536 416 l 492 0 l 386 0 l 384 76 q 339 -11 240 -11 z"},"q":{"x_min":0,"x_max":488,"ha":488,"o":"m 244 -190 l 269 43 q 211 -9 155 -10 q 35 -10 35 139 q 35 161 38 187 l 59 385 q 65 444 83 488 q 100 532 135 560 q 169 587 217 587 q 275 587 321 541 l 325 578 l 473 578 l 393 -190 z m 225 91 q 245 91 275 107 l 313 472 q 289 488 267 488 q 242 488 228 467 q 214 445 210 412 l 186 176 q 184 163 184 151 q 184 91 225 91 z"},"d":{"x_min":0,"x_max":487,"ha":487,"o":"m 155 -10 q 35 -10 35 139 q 35 161 38 187 l 59 385 q 65 444 83 488 q 100 532 135 560 q 169 587 217 587 q 274 587 319 542 l 347 810 l 496 810 l 411 0 l 262 0 l 267 42 q 211 -9 155 -10 z m 224 91 q 245 91 273 106 l 312 473 q 290 488 266 488 q 241 488 228 467 q 214 445 210 412 l 186 176 q 184 163 184 151 q 184 91 224 91 z"},"1":{"x_min":0,"x_max":526,"ha":526,"o":"m 191 0 l 259 648 l 132 608 l 144 722 q 186 737 236 761 q 287 786 310 810 l 428 810 l 343 0 z"},"5":{"x_min":0,"x_max":526,"ha":526,"o":"m 240 -13 q 178 -13 138 5 q 98 23 80 55 q 62 88 56 134 q 54 153 54 174 q 54 203 58 236 l 206 236 q 203 202 203 175 q 203 170 203 164 q 204 134 218 118 q 231 102 259 102 q 260 102 260 102 q 273 103 284 107 q 295 112 302 119 q 310 125 316 139 q 322 153 326 165 q 330 176 333 198 q 336 219 338 234 q 340 249 343 277 q 347 317 347 349 q 347 351 347 353 q 347 385 333 405 q 318 424 289 424 q 234 424 210 353 l 80 353 l 137 810 l 510 810 l 497 677 l 250 677 l 222 498 q 237 513 266 524 q 295 534 330 537 q 338 537 346 537 q 427 537 462 477 q 492 427 492 345 q 492 317 488 286 q 482 230 473 189 q 464 147 446 108 q 428 68 401 43 q 375 18 334 2 q 293 -13 240 -13 z"}}}
